<svg id="Layer_1" data-name="Layer 1" xmlns="http://www.w3.org/2000/svg" viewBox="0 0 63.02 30.31"><defs><style>.cls-1{fill:#fff;}.cls-2,.cls-3{isolation:isolate;}.cls-3{font-size:4.36px;font-family:SegoeUI-Semibold, Segoe UI;font-weight:600;}.cls-3,.cls-9{fill:#18b1d0;}.cls-4{letter-spacing:-0.01em;}.cls-5{letter-spacing:0em;}.cls-6{letter-spacing:-0.03em;}.cls-7{letter-spacing:-0.01em;}.cls-8{fill:#1687c8;}</style></defs><title>Logo_Colored</title><g id="grp-01"><g id="Group_213" data-name="Group 213"><path id="Path_175" data-name="Path 175" class="cls-1" d="M37.53,21.26a7.19,7.19,0,0,1-4.78,2A5.13,5.13,0,0,1,29.19,22a7.55,7.55,0,0,1-2-3.14,16.93,16.93,0,0,1-1-6.34c0-1.55.08-5.3,1.51-8A6.66,6.66,0,0,1,29,2.74,5.24,5.24,0,0,1,31.1,1.45a4.46,4.46,0,0,1,4,.64C37.31,3.75,37.47,7,37.48,7.25L34.29,8.32A2.86,2.86,0,0,0,33,5.87a1.57,1.57,0,0,0-1.22-.08c-.91.33-1.32,1.48-1.62,2.36a13,13,0,0,0-.49,4.94,9.17,9.17,0,0,0,.7,4.05,2.79,2.79,0,0,0,1.19,1.37,1.92,1.92,0,0,0,1.33.13,2.94,2.94,0,0,0,1.72-1.29V15.12l-2.28,0V10.69h5.3Z"/><path id="Path_176" data-name="Path 176" class="cls-1" d="M51,22.91h-3.4l-1.44-5.43c-.15-.42-.29-.79-.44-1.11a5.87,5.87,0,0,0-.42-.83A2.31,2.31,0,0,0,44.8,15a.83.83,0,0,0-.51-.18H43.5v8.11l-3.28,0q0-10.69,0-21.37l5.23-.05a4.22,4.22,0,0,1,3.46,1.72A7.11,7.11,0,0,1,50,7.51a10,10,0,0,1-.21,2,7.08,7.08,0,0,1-.6,1.69,5,5,0,0,1-.93,1.3,4.11,4.11,0,0,1-1.21.86v.06a1.73,1.73,0,0,1,.56.48,5.91,5.91,0,0,1,.54.77c.17.3.33.61.49.95s.29.67.42,1C49.7,18.75,50.32,20.83,51,22.91ZM43.5,5.32V10.5H45a1.4,1.4,0,0,0,.7-.09,1.83,1.83,0,0,0,.63-.47,3.11,3.11,0,0,0,.57-1.84,3.12,3.12,0,0,0-.61-2.2,1.83,1.83,0,0,0-1.45-.58Z"/><path id="Path_177" data-name="Path 177" class="cls-1" d="M55.94,15.53q0,3.66,0,7.32H52.55V1.62h4.63q5,0,5,6.76a8.62,8.62,0,0,1-1.43,5.17,4.46,4.46,0,0,1-3.8,2Zm0-9.76v5.16L57,11a1.75,1.75,0,0,0,1-.48,3,3,0,0,0,.77-2.08,3.07,3.07,0,0,0-.7-2.12A1.81,1.81,0,0,0,57,5.73l-1,0Z"/></g><g id="Government_Resource_Planning" data-name="Government Resource Planning" class="cls-2"><text class="cls-3" transform="translate(0.52 27.81)">Go<tspan class="cls-4" x="5.64" y="0">v</tspan><tspan class="cls-5" x="7.81" y="0">ernment </tspan><tspan class="cls-6" x="25.76" y="0">R</tspan><tspan x="28.36" y="0">esou</tspan><tspan class="cls-7" x="37.7" y="0">r</tspan><tspan x="39.27" y="0">ce Planning</tspan></text></g><rect id="Rectangle_27" data-name="Rectangle 27" class="cls-8" x="17.36" y="0.81" width="6.17" height="6.17"/><rect id="Rectangle_28" data-name="Rectangle 28" class="cls-9" x="17.36" y="8.84" width="6.17" height="6.17"/><rect id="Rectangle_29" data-name="Rectangle 29" class="cls-8" x="17.36" y="17.06" width="6.17" height="6.17"/><rect id="Rectangle_30" data-name="Rectangle 30" class="cls-9" x="9.36" y="17.06" width="6.17" height="6.17"/><rect id="Rectangle_31" data-name="Rectangle 31" class="cls-8" x="9.36" y="8.84" width="6.17" height="6.17"/><rect id="Rectangle_32" data-name="Rectangle 32" class="cls-9" x="1.35" y="8.84" width="6.17" height="6.17"/></g></svg>